<?xml version="1.0" standalone="no"?>
<!DOCTYPE svg PUBLIC "-//W3C//DTD SVG 20010904//EN"
 "http://www.w3.org/TR/2001/REC-SVG-20010904/DTD/svg10.dtd">
<svg version="1.0" xmlns="http://www.w3.org/2000/svg"
 width="4000.000000pt" height="4000.000000pt" viewBox="0 0 4000.000000 4000.000000"
 preserveAspectRatio="xMidYMid meet">
<metadata>
Created by potrace 1.11, written by Peter Selinger 2001-2013
</metadata>
<g transform="translate(0.000000,4000.000000) scale(0.100000,-0.100000)"
fill="#000000" stroke="none">
<path d="M11260 35651 c-30 -10 -82 -34 -115 -53 -259 -150 -308 -178 -315
-178 -5 0 -10 -3 -12 -7 -1 -5 -93 -59 -203 -122 -110 -63 -231 -133 -270
-156 -38 -23 -77 -45 -85 -48 -8 -4 -33 -18 -55 -32 -22 -14 -47 -28 -55 -32
-8 -4 -46 -25 -85 -48 -38 -23 -194 -113 -345 -200 -259 -149 -406 -234 -440
-255 -8 -5 -46 -27 -85 -49 -38 -22 -97 -56 -130 -76 -33 -19 -69 -40 -80 -45
-11 -6 -33 -19 -50 -29 -16 -10 -48 -28 -70 -41 -83 -47 -515 -295 -625 -360
-63 -37 -205 -119 -315 -182 -110 -64 -216 -125 -235 -137 -19 -11 -44 -25
-55 -31 -11 -6 -38 -21 -60 -34 -241 -139 -454 -262 -472 -270 -13 -6 -23 -14
-23 -18 0 -5 -4 -8 -9 -8 -5 0 -47 -22 -93 -48 -433 -252 -608 -352 -617 -352
-5 0 -11 -3 -13 -8 -4 -9 -286 -172 -298 -172 -5 0 -10 -3 -12 -7 -1 -5 -93
-59 -203 -122 -189 -108 -299 -172 -425 -246 -30 -18 -75 -44 -100 -57 -65
-37 -342 -196 -360 -207 -8 -6 -69 -41 -135 -79 -66 -38 -205 -118 -310 -179
-104 -60 -210 -121 -235 -135 -25 -14 -112 -65 -195 -113 -82 -48 -170 -99
-194 -113 -25 -13 -67 -38 -93 -53 -27 -16 -53 -29 -58 -29 -6 0 -10 -4 -10
-10 0 -5 -4 -10 -10 -10 -5 0 -70 -36 -146 -80 -75 -44 -138 -80 -140 -80 -3
0 -35 -20 -72 -45 -76 -50 -112 -91 -150 -173 l-27 -57 -3 -4575 c-1 -3133 1
-4590 8 -4624 14 -67 53 -142 98 -186 32 -32 212 -150 228 -150 4 0 25 -13 48
-28 22 -15 56 -34 73 -41 18 -7 33 -17 33 -22 0 -5 4 -9 9 -9 6 0 148 -80 318
-178 169 -98 328 -190 353 -204 76 -43 293 -169 325 -189 17 -10 37 -22 45
-26 8 -4 80 -45 160 -91 80 -47 163 -95 185 -107 50 -29 340 -196 415 -240 30
-18 71 -41 90 -51 19 -10 37 -21 40 -24 3 -3 19 -12 35 -21 17 -8 208 -118
425 -244 217 -126 420 -242 450 -258 30 -16 61 -35 69 -41 15 -12 49 -32 71
-42 15 -7 168 -95 345 -200 55 -32 102 -59 105 -59 3 0 16 -8 30 -17 34 -21
340 -198 415 -239 33 -18 62 -36 63 -41 2 -4 7 -8 12 -8 5 0 48 -23 97 -51 48
-28 104 -61 123 -71 90 -51 367 -212 385 -223 11 -7 22 -12 25 -11 3 0 19 -9
35 -20 17 -12 62 -39 100 -61 39 -22 142 -82 230 -133 191 -111 217 -125 275
-158 25 -13 50 -28 55 -32 6 -4 30 -19 55 -32 65 -36 83 -47 429 -247 278
-162 355 -206 491 -283 69 -40 356 -206 390 -227 19 -11 41 -24 49 -28 8 -4
76 -42 150 -86 75 -44 161 -93 191 -110 30 -16 60 -33 65 -37 6 -4 26 -17 45
-28 19 -11 64 -36 100 -57 36 -21 81 -46 100 -57 19 -11 70 -41 113 -65 107
-62 167 -83 240 -84 109 -2 114 1 532 243 110 63 216 124 235 135 19 11 59 34
88 52 29 17 54 31 56 31 2 0 45 25 95 55 51 30 93 55 95 55 3 0 299 171 346
200 8 5 64 37 125 72 60 35 130 75 155 89 177 102 712 412 790 457 52 31 97
57 100 57 3 0 16 8 30 16 48 30 130 79 134 79 2 0 76 43 165 95 89 52 166 95
171 95 6 0 10 5 10 10 0 6 5 10 11 10 6 0 63 31 127 69 103 60 423 246 657
380 44 25 89 51 100 58 11 7 27 16 35 20 8 4 49 27 90 51 41 25 93 55 115 67
22 12 195 112 385 222 190 110 365 211 390 225 25 14 144 83 265 153 121 70
310 179 420 243 205 118 408 236 435 252 77 46 192 110 198 110 5 0 13 5 20
12 11 11 79 51 162 96 35 19 495 284 600 346 30 18 136 79 235 136 99 56 191
110 205 119 14 8 39 22 55 31 32 18 277 160 329 191 17 10 40 23 51 28 33 14
119 96 135 127 8 16 20 36 26 44 7 8 13 20 14 25 0 6 5 26 10 45 6 22 10 1678
10 4611 0 4250 -1 4579 -17 4625 -23 69 -68 138 -111 173 -32 25 -170 108
-305 185 -38 21 -135 77 -482 278 -152 88 -137 79 -228 132 -43 25 -79 46 -81
46 -2 0 -34 18 -70 40 -36 22 -69 40 -74 40 -4 0 -13 5 -20 12 -12 12 -103 66
-152 90 -14 7 -44 25 -67 40 -23 15 -44 28 -47 28 -3 0 -33 17 -68 37 -35 21
-79 47 -98 58 -49 28 -324 186 -363 209 -86 50 -487 282 -526 303 -24 14 -103
60 -175 102 -73 43 -138 80 -146 84 -8 4 -33 18 -55 32 -22 14 -47 28 -55 32
-8 4 -59 33 -113 65 -53 32 -99 58 -102 58 -2 0 -40 23 -85 50 -45 28 -83 50
-85 50 -2 0 -48 27 -103 59 -55 32 -124 72 -154 89 -29 16 -93 53 -143 82 -91
54 -149 87 -195 113 -14 7 -142 81 -285 164 -143 83 -273 158 -290 167 -16 9
-43 25 -60 36 -16 11 -36 23 -43 26 -7 4 -79 45 -160 91 -81 47 -167 97 -191
111 -25 13 -67 38 -93 53 -27 16 -53 29 -58 29 -6 0 -10 4 -10 9 0 5 -6 11
-12 13 -7 2 -91 48 -186 103 -96 55 -190 109 -210 121 -20 12 -66 38 -102 59
-36 20 -83 48 -105 60 -22 13 -166 96 -320 185 -154 89 -300 174 -325 188 -25
14 -58 33 -75 43 -16 10 -55 32 -85 49 -30 17 -68 39 -85 49 -16 10 -47 28
-68 40 -21 12 -108 62 -192 111 -85 50 -159 90 -165 90 -5 0 -10 5 -10 10 0 6
-4 10 -10 10 -5 0 -47 22 -92 49 -46 27 -184 107 -308 179 -124 71 -241 139
-260 150 -178 104 -268 123 -390 83z m161 -817 c8 -8 18 -14 22 -14 3 0 47
-25 98 -55 50 -30 93 -55 94 -55 3 0 140 -78 175 -100 24 -14 240 -140 290
-168 25 -13 57 -33 72 -43 14 -11 29 -19 31 -19 3 0 94 -52 203 -115 108 -63
198 -115 200 -115 3 0 21 -11 42 -24 20 -13 70 -43 110 -66 l74 -42 -29 -17
c-15 -10 -53 -31 -83 -48 -30 -16 -140 -79 -245 -138 -104 -59 -210 -119 -235
-133 -25 -14 -58 -34 -75 -44 -16 -10 -37 -21 -45 -25 -15 -7 -332 -186 -360
-203 -8 -5 -85 -48 -170 -96 -171 -97 -173 -98 -314 -178 -54 -31 -102 -56
-107 -56 -5 0 -9 -4 -9 -10 0 -5 -4 -10 -8 -10 -5 0 -291 -160 -636 -355 -345
-195 -631 -355 -636 -355 -4 0 -10 -4 -12 -8 -3 -7 -199 -120 -323 -186 -22
-11 -42 -24 -45 -28 -3 -4 -17 -12 -30 -17 -14 -6 -32 -15 -40 -21 -22 -14
-115 -67 -190 -107 -36 -20 -73 -43 -82 -51 -10 -8 -18 -12 -18 -9 0 4 -25 -9
-55 -28 -30 -19 -56 -35 -58 -35 -2 0 -65 -34 -138 -76 -74 -42 -186 -106
-249 -141 -63 -36 -142 -81 -175 -100 -33 -19 -69 -39 -80 -45 -22 -12 -162
-92 -332 -189 -149 -85 -160 -91 -228 -129 -33 -18 -64 -36 -70 -40 -5 -4 -35
-21 -65 -37 -66 -36 -168 -94 -660 -373 -206 -117 -400 -227 -430 -243 -30
-17 -84 -48 -119 -69 -34 -21 -64 -38 -66 -38 -2 0 -79 -43 -172 -96 -92 -53
-197 -112 -233 -132 -36 -19 -69 -38 -75 -42 -5 -4 -152 -88 -325 -185 -173
-98 -331 -187 -350 -198 -19 -11 -69 -39 -110 -62 -41 -23 -97 -56 -125 -72
-27 -16 -57 -32 -65 -36 -8 -4 -31 -17 -50 -28 -19 -12 -53 -31 -75 -42 -22
-12 -47 -27 -55 -33 -8 -6 -42 -26 -75 -43 -33 -18 -67 -36 -75 -42 -25 -16
-394 -223 -425 -239 -17 -8 -32 -18 -35 -21 -3 -3 -41 -25 -85 -48 -44 -24
-99 -54 -121 -67 l-42 -25 -4 31 c-3 17 -1 33 3 35 4 3 4 20 0 37 -4 18 -5 44
-4 58 2 14 3 46 3 73 0 26 0 54 0 62 0 8 0 22 0 30 0 8 0 38 0 65 1 28 1 60 1
73 1 12 1 33 0 47 0 14 -1 41 -2 60 -1 19 -1 47 0 63 0 15 1 50 1 77 0 28 0
57 0 65 0 8 0 22 0 30 0 8 0 38 0 65 1 28 1 60 1 73 1 12 1 33 0 47 0 14 -1
41 -2 60 -1 19 -1 47 0 63 0 15 1 50 1 77 0 28 0 57 0 65 0 8 0 22 0 30 0 8 0
36 0 63 -1 26 1 56 3 67 2 11 1 32 -3 46 -4 15 -4 32 0 39 4 6 4 28 0 47 -8
33 -7 35 45 69 30 19 57 34 60 34 3 0 31 16 61 35 30 19 56 35 58 35 3 0 306
175 346 199 8 5 80 47 160 93 79 46 168 97 196 113 28 17 106 62 173 100 68
39 136 78 152 88 56 32 414 239 459 265 64 36 544 313 680 392 108 64 136 80
228 131 20 12 42 25 47 29 6 4 35 21 65 37 30 17 197 112 370 213 173 100 421
243 550 317 129 75 246 143 260 152 14 8 27 16 30 16 3 0 16 8 30 17 30 19
266 155 335 193 28 15 62 36 77 46 14 11 29 19 32 19 4 0 39 20 79 44 39 24
92 54 117 68 25 14 126 72 225 130 99 57 187 108 195 111 8 4 29 16 45 27 17
11 37 23 45 27 8 4 47 26 85 48 73 44 457 265 710 410 22 13 101 59 176 102
74 44 142 82 150 86 8 4 30 17 49 28 38 23 529 307 595 345 22 12 157 90 300
173 265 154 277 159 316 125z m2127 -1231 c235 -135 513 -295 617 -356 105
-60 227 -130 272 -156 45 -25 83 -49 83 -53 0 -6 -54 -38 -170 -101 -30 -16
-60 -34 -67 -39 -7 -5 -27 -17 -45 -27 -62 -32 -173 -94 -183 -102 -9 -6 -154
-89 -265 -151 -25 -14 -89 -50 -143 -81 -54 -32 -101 -57 -104 -57 -4 0 -14
-6 -22 -14 -9 -7 -47 -30 -86 -51 -105 -57 -110 -60 -115 -65 -3 -3 -14 -10
-25 -16 -61 -33 -142 -79 -335 -189 -488 -278 -736 -419 -755 -429 -31 -18
-378 -216 -395 -226 -8 -5 -73 -43 -145 -83 -153 -87 -137 -78 -293 -167 -68
-38 -125 -70 -128 -70 -2 0 -21 -11 -42 -23 -20 -13 -57 -35 -82 -49 -25 -14
-142 -80 -260 -148 -118 -68 -240 -136 -270 -153 -30 -16 -66 -37 -80 -46 -14
-8 -34 -21 -45 -27 -58 -31 -495 -280 -525 -299 -19 -12 -50 -28 -67 -36 -18
-7 -33 -17 -33 -21 0 -5 -4 -8 -10 -8 -5 0 -31 -13 -58 -29 -50 -30 -98 -56
-197 -111 -33 -18 -67 -38 -75 -45 -8 -6 -40 -24 -70 -39 -30 -16 -63 -35 -72
-44 -10 -8 -18 -12 -18 -8 0 4 -12 -1 -27 -12 -25 -16 -171 -101 -303 -174
-76 -42 -384 -218 -400 -228 -8 -5 -57 -33 -109 -62 -51 -29 -119 -68 -150
-86 -31 -18 -65 -37 -76 -42 -11 -6 -27 -14 -35 -20 -26 -17 -172 -100 -175
-100 -2 0 -25 -13 -52 -29 -37 -23 -712 -408 -878 -501 -16 -9 -50 -28 -75
-42 -95 -53 -120 -68 -159 -92 -22 -15 -43 -26 -46 -26 -3 0 -22 -10 -43 -23
-20 -13 -68 -40 -105 -61 -38 -21 -128 -72 -200 -113 -73 -42 -157 -89 -187
-106 -30 -16 -59 -33 -65 -37 -5 -4 -32 -20 -60 -35 -27 -16 -68 -39 -90 -52
-22 -12 -51 -28 -65 -35 -14 -7 -36 -20 -50 -29 -14 -9 -47 -29 -75 -43 -27
-15 -66 -37 -85 -48 -19 -11 -53 -31 -75 -42 -22 -12 -51 -29 -65 -38 -14 -8
-198 -113 -410 -233 -212 -120 -397 -226 -412 -236 -15 -11 -29 -19 -32 -19
-3 0 -31 -15 -63 -34 -32 -18 -78 -45 -103 -59 -156 -87 -247 -138 -260 -147
-8 -5 -58 -33 -110 -63 -52 -29 -138 -78 -190 -108 -52 -30 -109 -61 -125 -69
-17 -8 -36 -21 -43 -28 -22 -21 -28 -6 -22 56 3 32 3 73 -1 90 -3 17 -3 36 1
42 4 6 4 25 1 41 -3 16 -4 66 -1 110 3 45 3 85 0 90 -3 4 -3 35 0 67 3 32 3
69 0 81 -3 13 -3 54 0 92 3 39 3 75 -1 80 -3 5 -3 29 0 52 4 23 4 55 1 71 -3
16 -3 65 0 108 3 44 3 84 0 89 -3 4 -3 35 0 67 3 32 3 69 0 81 -3 13 -3 54 0
92 3 39 3 75 -1 80 -3 6 -3 27 1 47 3 21 3 49 -1 63 -3 15 -3 32 1 39 4 7 4
27 0 45 -9 38 5 55 75 92 22 12 54 29 72 40 50 28 436 245 458 257 11 6 22 13
25 16 3 4 64 38 135 78 72 40 153 85 180 100 28 16 131 75 230 130 99 56 187
106 195 111 26 16 204 117 220 124 8 4 33 18 55 32 22 13 68 39 103 57 34 18
62 36 62 40 0 5 5 8 10 8 9 0 231 122 290 160 8 5 42 23 75 41 33 17 63 36 66
41 3 5 8 8 10 7 4 -3 59 27 152 83 26 15 49 28 51 28 3 0 37 19 78 43 40 24
98 57 128 74 30 17 84 47 120 68 36 20 90 51 120 68 30 16 120 67 200 112 80
46 163 93 184 105 22 12 139 78 260 147 122 70 239 136 261 147 22 12 46 27
53 34 7 6 17 12 22 12 5 0 54 27 110 60 56 33 103 60 106 60 2 0 38 20 80 45
41 25 77 45 79 45 1 0 53 29 114 65 62 36 114 65 116 65 2 0 41 23 88 50 47
28 88 50 93 50 4 0 15 6 23 14 9 8 39 26 66 40 28 15 57 31 65 37 23 14 347
197 420 236 36 20 70 39 75 43 6 4 30 19 55 32 84 47 575 326 610 347 19 11
41 24 49 28 8 3 86 47 175 98 89 50 168 94 176 98 8 4 29 15 45 25 17 10 50
30 75 44 25 14 113 64 196 112 84 47 157 86 163 86 6 0 11 4 11 9 0 5 8 11 18
14 24 8 96 50 100 60 2 4 8 7 14 7 5 0 40 17 76 39 37 21 83 48 102 58 32 18
443 252 515 293 17 9 51 29 78 43 69 39 112 64 307 174 96 55 312 177 480 271
168 95 312 177 320 182 20 12 122 70 185 106 28 15 64 36 80 46 17 10 34 18
38 18 4 0 200 -111 435 -247z m1355 -780 c45 -27 90 -52 99 -58 40 -23 245
-140 263 -151 35 -19 129 -74 145 -84 17 -10 127 -74 180 -103 19 -11 47 -28
62 -38 14 -11 28 -19 31 -19 3 0 99 -54 213 -121 115 -67 244 -141 287 -166
43 -25 75 -49 70 -53 -4 -4 -28 -19 -53 -32 -25 -14 -193 -108 -375 -210 -181
-102 -352 -198 -380 -213 -27 -15 -54 -31 -60 -35 -5 -4 -39 -23 -75 -42 -36
-20 -117 -65 -180 -100 -119 -68 -143 -81 -272 -154 -43 -24 -82 -44 -87 -44
-5 0 -11 -3 -13 -7 -1 -5 -23 -19 -48 -32 -25 -14 -108 -60 -184 -103 -77 -43
-143 -78 -148 -78 -4 0 -8 -5 -8 -12 0 -6 -3 -8 -6 -5 -4 4 -19 -2 -33 -12
-14 -10 -53 -33 -86 -51 -63 -34 -189 -105 -215 -120 -8 -5 -41 -23 -74 -40
-32 -17 -75 -42 -95 -55 -19 -14 -38 -25 -42 -25 -3 0 -44 -22 -91 -49 -46
-26 -111 -63 -144 -81 -51 -29 -389 -219 -479 -270 -16 -9 -59 -33 -95 -52
-36 -20 -110 -62 -165 -93 -89 -51 -142 -80 -240 -135 -73 -40 -172 -96 -190
-107 -11 -7 -27 -15 -35 -19 -8 -4 -139 -77 -290 -162 -151 -85 -295 -166
-320 -180 -25 -14 -94 -53 -155 -87 -106 -60 -148 -84 -252 -141 -27 -15 -77
-44 -113 -64 -82 -47 -122 -70 -207 -116 -37 -20 -93 -52 -124 -70 -31 -19
-62 -34 -68 -34 -6 0 -11 -4 -11 -10 0 -5 -4 -10 -10 -10 -5 0 -112 -58 -237
-128 -125 -71 -253 -143 -283 -159 -30 -17 -82 -46 -115 -65 -33 -19 -67 -37
-75 -41 -8 -4 -22 -11 -30 -17 -14 -9 -126 -73 -270 -153 -30 -16 -176 -98
-325 -182 -148 -84 -290 -163 -315 -177 -25 -14 -99 -55 -165 -93 -66 -37
-149 -83 -185 -102 -36 -20 -69 -39 -75 -43 -5 -4 -35 -21 -65 -37 -102 -56
-315 -175 -350 -197 -19 -11 -37 -21 -40 -21 -3 0 -21 -10 -40 -21 -47 -29
-321 -184 -389 -220 -30 -16 -61 -33 -70 -39 -9 -5 -48 -28 -86 -49 -93 -53
-129 -72 -167 -94 -27 -15 -206 -116 -406 -228 -20 -11 -118 -66 -217 -121
-99 -55 -198 -111 -220 -123 -22 -13 -60 -34 -85 -48 -25 -14 -87 -49 -138
-78 -52 -30 -95 -54 -97 -54 -2 0 -58 -31 -125 -70 -67 -38 -123 -70 -125 -70
-2 0 -28 -14 -57 -31 -29 -18 -66 -39 -83 -49 -95 -53 -305 -170 -358 -199
-34 -18 -73 -40 -87 -49 -14 -9 -43 -26 -65 -37 -22 -12 -93 -51 -157 -88 -65
-37 -121 -67 -125 -67 -3 0 -14 -6 -22 -14 -9 -7 -50 -31 -91 -53 -41 -23
-104 -57 -140 -78 -36 -20 -90 -51 -120 -67 -30 -17 -140 -79 -245 -138 -215
-121 -609 -341 -642 -359 -25 -13 -24 -15 -24 157 0 17 1 55 1 82 0 28 0 57 0
65 0 8 0 22 0 30 0 8 0 36 0 63 -1 26 1 56 3 67 2 11 1 34 -4 52 -4 18 -3 35
1 38 4 3 5 20 1 37 -4 18 -6 44 -4 58 4 35 5 112 3 248 0 9 1 42 1 72 1 30 1
62 0 70 -3 53 -1 102 4 110 3 5 1 11 -5 15 -6 4 -8 11 -4 16 3 5 5 38 4 72 -1
67 -1 68 -1 112 1 17 1 38 0 48 0 9 0 46 1 81 l1 64 226 129 c124 70 246 140
272 154 25 14 64 36 86 48 22 13 153 87 290 166 284 162 825 469 1085 617 96
54 182 103 190 108 8 5 100 58 205 117 104 59 199 113 210 120 11 7 26 15 34
19 8 4 62 35 120 69 58 34 113 64 121 68 8 4 22 11 30 17 38 25 193 110 201
110 5 0 9 3 9 8 0 4 10 12 23 18 53 25 447 249 464 264 7 5 15 10 18 10 3 0
150 83 328 184 177 101 340 194 362 206 22 12 60 34 85 49 25 14 57 33 72 41
62 34 216 122 263 149 28 16 66 38 85 49 19 10 195 110 390 222 195 112 378
215 405 230 28 14 69 38 92 53 24 15 44 27 46 27 2 0 44 23 93 51 49 29 109
63 134 77 25 14 101 58 170 97 69 39 152 87 184 105 33 18 132 74 220 125 89
50 181 103 206 117 25 14 74 42 110 63 95 55 119 68 180 102 30 17 84 48 120
68 109 63 153 88 191 109 42 24 68 39 414 236 138 78 270 154 295 168 25 14
87 49 138 78 52 30 98 54 103 54 5 0 9 4 9 8 0 4 12 13 28 19 15 7 34 17 42
23 24 16 332 190 337 190 3 0 17 8 31 18 15 11 52 32 82 49 30 16 188 105 350
198 162 92 315 179 340 193 25 14 50 28 55 32 8 6 51 30 150 84 11 6 22 13 25
16 3 3 23 14 45 26 50 27 585 330 605 344 8 6 24 14 35 20 11 5 43 23 70 39
28 16 70 41 95 54 25 14 104 59 175 100 72 42 136 76 143 76 7 1 50 -20 95
-46z m1709 -989 c35 -19 77 -43 93 -53 17 -10 53 -30 80 -46 82 -47 147 -84
200 -116 28 -16 57 -32 65 -36 8 -3 22 -11 30 -18 8 -7 40 -26 70 -42 75 -40
751 -431 758 -438 2 -1 -32 -22 -75 -46 -43 -24 -96 -54 -118 -67 -22 -12 -48
-25 -57 -29 -10 -3 -18 -9 -18 -14 0 -5 -4 -9 -9 -9 -5 0 -68 -33 -139 -73
-71 -41 -135 -77 -143 -80 -8 -4 -27 -15 -44 -25 -16 -10 -52 -31 -80 -47
-138 -77 -303 -170 -325 -184 -14 -9 -34 -21 -45 -27 -155 -84 -182 -100 -322
-180 -48 -28 -95 -54 -103 -58 -8 -4 -24 -12 -35 -19 -25 -15 -118 -68 -165
-95 -41 -22 -791 -447 -835 -472 -16 -10 -151 -86 -300 -170 -148 -84 -335
-189 -415 -235 -80 -45 -165 -93 -190 -107 -25 -14 -85 -48 -134 -77 -49 -28
-90 -51 -92 -51 -2 0 -25 -13 -52 -29 -26 -15 -68 -39 -93 -53 -24 -14 -179
-102 -344 -195 -328 -186 -313 -178 -590 -333 -22 -12 -44 -26 -50 -30 -5 -4
-30 -18 -55 -32 -25 -14 -72 -40 -105 -58 -59 -32 -236 -133 -265 -150 -8 -5
-55 -32 -105 -59 -49 -28 -101 -57 -115 -66 -24 -14 -398 -226 -490 -277 -25
-14 -61 -34 -80 -45 -154 -88 -227 -129 -242 -138 -9 -5 -39 -22 -65 -36 -26
-15 -64 -36 -83 -47 -19 -11 -51 -29 -70 -40 -60 -33 -423 -239 -460 -261 -19
-11 -42 -24 -50 -28 -8 -3 -87 -48 -175 -98 -88 -50 -167 -95 -175 -98 -8 -4
-31 -17 -50 -28 -34 -21 -220 -127 -310 -177 -25 -14 -144 -82 -265 -150 -121
-69 -240 -136 -263 -149 -71 -38 -433 -244 -485 -274 -26 -16 -52 -29 -57 -29
-6 0 -10 -4 -10 -10 0 -5 -5 -10 -10 -10 -6 0 -74 -36 -151 -80 -77 -44 -145
-80 -150 -80 -5 0 -9 -4 -9 -10 0 -5 -4 -10 -9 -10 -5 0 -47 -22 -93 -48 -46
-26 -90 -51 -98 -55 -8 -4 -22 -11 -30 -17 -16 -11 -181 -104 -265 -150 -27
-15 -90 -51 -138 -79 -49 -28 -93 -51 -98 -51 -5 0 -9 -3 -9 -7 0 -5 -20 -17
-45 -28 -25 -11 -45 -23 -45 -27 0 -3 -10 -10 -22 -13 -11 -4 -42 -20 -68 -35
-25 -15 -66 -38 -91 -52 -24 -14 -60 -34 -79 -45 -90 -53 -156 -90 -170 -96
-8 -4 -31 -17 -50 -28 -19 -12 -105 -61 -190 -109 -153 -87 -178 -100 -275
-155 -27 -15 -115 -65 -195 -110 -195 -111 -219 -124 -265 -149 -22 -12 -71
-40 -110 -63 -38 -22 -90 -52 -115 -65 -25 -14 -72 -41 -105 -60 -52 -30 -223
-127 -350 -198 -22 -13 -69 -39 -105 -58 -36 -20 -76 -43 -90 -52 -14 -9 -50
-30 -80 -47 -55 -30 -499 -281 -707 -399 -61 -35 -116 -64 -121 -64 -6 0 -12
-4 -14 -8 -1 -4 -55 -37 -118 -71 -63 -35 -151 -85 -195 -111 -44 -25 -87 -49
-95 -53 -8 -4 -22 -11 -30 -17 -14 -9 -241 -138 -350 -198 -25 -14 -49 -28
-55 -32 -33 -23 -44 -19 -45 18 -2 75 -2 98 -1 125 1 15 1 39 2 55 1 36 1 71
0 102 -1 14 -1 33 -1 43 0 9 0 38 0 65 -1 26 1 56 3 67 2 11 1 34 -4 52 -4 18
-3 35 1 38 4 3 5 20 1 37 -4 18 -5 44 -4 58 2 14 3 46 3 73 0 26 0 54 0 62 0
8 0 22 0 30 0 8 0 38 0 65 1 28 1 60 1 73 1 12 1 33 0 47 0 14 -1 41 -2 60 -1
19 -1 47 0 63 0 15 1 50 1 77 0 28 0 58 0 68 0 9 0 28 -1 42 0 14 -1 39 0 55
3 122 1 197 -4 205 -3 6 4 15 17 20 13 6 39 20 58 31 19 12 59 34 89 50 30 16
59 33 65 38 10 7 58 34 191 106 22 12 64 36 93 54 29 17 57 31 62 31 6 0 10 5
10 10 0 6 5 10 11 10 6 0 88 43 182 97 95 53 197 110 227 126 30 16 60 33 65
37 6 4 37 22 70 40 33 18 182 102 330 185 340 191 361 203 410 230 22 12 74
41 115 65 41 24 93 53 115 65 22 12 60 33 85 47 25 14 65 36 90 50 25 14 61
35 80 47 19 11 42 24 50 28 8 3 65 34 125 68 61 34 131 74 158 88 26 15 68 39
95 54 26 14 108 61 182 103 75 42 142 79 150 83 8 4 29 15 45 25 17 10 59 35
95 54 36 20 88 49 115 65 28 16 79 45 115 65 57 32 224 125 345 192 91 51 363
205 400 226 37 22 73 42 215 120 30 16 73 40 95 53 22 13 67 39 100 57 33 18
78 44 100 56 22 13 51 29 65 36 14 7 58 32 98 55 40 24 75 43 77 43 3 0 23 11
44 25 22 13 79 45 128 71 48 25 95 53 104 60 8 8 18 14 22 14 3 0 28 13 55 29
27 16 89 50 138 77 49 26 91 51 92 56 2 4 8 8 13 8 5 0 46 20 89 45 44 25 102
58 128 72 26 15 65 37 87 50 22 12 49 27 61 32 11 5 51 28 88 50 36 23 69 41
71 41 5 0 167 91 413 231 57 33 105 59 108 59 2 0 21 10 42 23 20 13 62 37 92
54 30 16 165 92 300 168 135 76 265 149 290 163 25 13 59 32 75 42 24 15 397
223 670 375 28 15 79 45 115 65 36 20 85 48 110 62 25 14 176 98 335 188 160
90 310 174 335 188 25 14 149 83 275 155 127 72 250 141 275 154 25 13 52 28
60 33 24 16 211 121 260 147 25 13 63 34 85 47 97 55 234 132 280 157 28 14
66 36 85 47 32 19 107 61 245 137 28 15 55 31 60 35 6 4 35 21 65 37 30 16
236 132 457 256 222 125 420 236 440 247 21 11 56 31 78 43 22 13 67 38 100
57 89 49 145 81 190 107 22 12 63 34 90 49 28 15 62 35 78 46 15 11 27 16 27
12 0 -4 8 -1 18 7 18 14 32 23 117 70 28 15 118 66 200 113 83 47 151 86 152
86 1 0 31 -16 65 -36z m1659 -956 c41 -24 76 -46 77 -50 2 -5 8 -8 13 -8 5 0
76 -39 157 -87 81 -47 163 -95 182 -105 53 -28 104 -59 114 -69 7 -6 12 -687
7 -855 -1 -18 -48 -49 -243 -160 -134 -77 -251 -143 -260 -149 -9 -5 -34 -20
-55 -31 -21 -12 -180 -102 -353 -201 -434 -248 -1237 -706 -1282 -731 -20 -12
-55 -32 -77 -46 -22 -15 -43 -26 -45 -26 -5 0 -255 -142 -296 -168 -14 -9 -25
-14 -25 -12 0 1 -25 -13 -55 -32 -47 -29 -120 -71 -258 -148 -15 -8 -65 -37
-112 -64 -146 -85 -184 -106 -202 -112 -10 -4 -18 -10 -18 -15 0 -5 -4 -9 -9
-9 -5 0 -64 -31 -132 -70 -67 -38 -126 -70 -131 -70 -4 0 -8 -4 -8 -10 0 -5
-4 -10 -10 -10 -5 0 -53 -26 -107 -57 -54 -31 -127 -72 -163 -91 -36 -20 -66
-39 -68 -44 -2 -4 -8 -8 -13 -8 -6 0 -48 -22 -95 -50 -47 -27 -87 -50 -90 -50
-3 0 -18 -8 -32 -18 -15 -11 -56 -35 -92 -54 -36 -20 -94 -53 -130 -73 -36
-21 -126 -72 -200 -115 -74 -42 -159 -91 -188 -108 -29 -18 -54 -32 -56 -32
-2 0 -65 -36 -141 -80 -76 -44 -139 -80 -140 -80 -1 0 -53 -29 -115 -65 -62
-36 -115 -65 -117 -65 -3 0 -17 -8 -31 -19 -15 -10 -52 -32 -82 -49 -30 -16
-147 -83 -260 -147 -267 -153 -268 -153 -315 -178 -22 -12 -47 -27 -55 -33 -8
-6 -40 -25 -70 -41 -51 -28 -212 -119 -545 -311 -140 -80 -220 -125 -275 -155
-19 -10 -48 -27 -65 -38 -16 -11 -42 -25 -57 -31 -16 -7 -28 -16 -28 -20 0 -4
-4 -8 -9 -8 -6 0 -262 -144 -569 -319 -308 -176 -575 -328 -594 -338 -18 -10
-44 -26 -58 -35 -27 -17 -88 -52 -160 -91 -25 -14 -61 -34 -80 -45 -19 -11
-89 -51 -155 -89 -66 -37 -128 -72 -137 -78 -9 -5 -29 -17 -45 -26 -33 -18
-732 -417 -783 -447 -19 -11 -51 -30 -71 -40 -63 -35 -462 -263 -519 -297 -30
-18 -71 -40 -90 -50 -19 -10 -37 -21 -40 -24 -3 -4 -16 -12 -30 -18 -14 -7
-47 -25 -75 -41 -27 -16 -72 -42 -100 -57 -27 -15 -54 -31 -60 -35 -5 -4 -35
-21 -65 -37 -30 -17 -163 -92 -295 -168 -132 -76 -265 -151 -295 -168 -30 -16
-59 -33 -65 -37 -5 -5 -30 -19 -55 -32 -25 -14 -252 -143 -505 -288 -253 -144
-523 -298 -600 -342 -77 -43 -147 -83 -155 -88 -8 -5 -67 -39 -130 -75 -63
-36 -133 -76 -155 -89 -22 -12 -60 -34 -85 -48 -25 -14 -88 -50 -140 -80 -52
-30 -115 -66 -140 -80 -25 -14 -90 -51 -145 -83 -55 -32 -125 -71 -155 -88
-30 -16 -59 -33 -65 -37 -5 -4 -32 -20 -60 -35 -92 -52 -180 -101 -217 -123
-21 -12 -53 -30 -70 -41 -18 -10 -57 -32 -86 -50 -29 -17 -58 -31 -64 -31 -7
0 -41 17 -77 39 -109 64 -265 155 -286 166 -86 47 -306 179 -311 186 -3 5 -5
26 -4 47 0 20 0 46 0 57 0 11 0 31 1 45 1 32 1 68 0 100 -1 14 -1 33 -1 43 0
9 0 40 0 67 1 28 1 60 1 73 1 12 1 33 0 47 -1 14 -1 32 -1 40 0 8 1 40 1 70
-1 30 -1 70 0 88 0 17 0 61 0 97 0 36 0 73 1 83 1 17 26 52 38 52 6 0 298 163
423 236 32 19 61 34 63 34 3 0 18 8 32 18 15 11 58 36 96 57 39 20 88 48 110
61 23 14 57 32 76 42 19 9 37 19 40 22 3 3 14 10 25 16 54 29 148 82 334 188
112 64 207 116 212 116 5 0 9 5 9 10 0 6 5 10 11 10 6 0 41 17 77 39 37 21 87
49 112 63 25 14 104 59 175 100 72 41 135 77 140 79 10 4 144 80 175 99 19 11
184 105 265 150 33 18 139 78 235 133 222 126 225 128 285 161 94 52 300 169
373 213 40 24 79 43 87 43 7 0 15 4 17 8 2 5 28 22 58 39 30 17 73 41 95 54
22 12 54 30 70 39 17 9 62 34 100 56 39 23 158 91 265 151 108 61 214 121 235
133 22 13 60 34 85 48 25 13 71 40 103 58 32 19 61 34 63 34 3 0 18 8 32 18
15 11 54 34 87 52 33 17 89 49 125 70 36 20 85 48 110 62 25 14 252 142 505
285 253 144 476 269 495 279 19 11 37 22 38 27 2 4 7 7 12 7 4 0 185 100 402
223 372 212 477 270 558 313 19 11 37 22 40 25 3 3 30 19 60 35 30 16 66 36
80 45 14 9 117 68 230 131 113 64 221 124 240 135 19 11 109 62 200 113 91 52
210 119 265 150 140 79 802 453 850 481 65 36 176 99 235 132 30 17 72 41 92
54 21 13 40 23 43 23 3 0 23 11 45 25 22 14 64 38 92 54 29 15 71 39 93 51 22
13 65 36 95 53 30 16 60 33 65 37 6 4 26 17 45 27 92 51 140 78 291 164 90 51
205 116 254 144 110 64 170 98 255 143 36 19 72 41 81 48 8 8 18 14 21 14 4 0
120 65 260 143 139 79 273 155 298 169 25 14 203 115 395 224 193 109 367 207
387 218 21 12 174 98 340 193 167 94 320 180 340 192 20 11 55 31 77 45 22 15
42 26 45 26 2 0 78 42 167 93 90 52 187 106 214 121 28 16 88 50 135 76 47 27
161 92 254 144 92 53 172 96 177 96 5 0 9 5 9 10 0 6 4 10 10 10 5 0 72 35
147 79 76 43 163 92 193 109 30 16 109 62 175 100 66 38 123 70 126 71 4 1 40
-18 80 -41z m551 -2300 c0 -425 -1 -798 -1 -828 l-1 -55 -117 -65 c-64 -36
-146 -82 -182 -103 -37 -20 -91 -51 -121 -67 -30 -17 -68 -39 -85 -48 -16 -10
-57 -33 -90 -51 -33 -18 -64 -36 -70 -41 -5 -4 -30 -18 -55 -32 -25 -14 -115
-65 -200 -113 -85 -49 -180 -102 -210 -118 -30 -17 -67 -38 -82 -49 -14 -10
-28 -18 -31 -18 -3 0 -80 -43 -172 -96 -91 -52 -174 -98 -183 -101 -9 -4 -19
-9 -22 -13 -3 -3 -32 -21 -65 -40 -33 -18 -76 -42 -95 -53 -19 -11 -55 -31
-80 -45 -25 -14 -124 -70 -220 -125 -96 -55 -195 -111 -220 -125 -25 -14 -83
-47 -129 -74 -46 -26 -85 -48 -86 -48 -2 0 -72 -40 -157 -88 -209 -121 -246
-142 -295 -167 -23 -12 -48 -26 -55 -32 -7 -6 -38 -24 -68 -40 -30 -17 -71
-40 -90 -51 -19 -12 -42 -25 -50 -29 -8 -4 -109 -60 -224 -126 -115 -65 -225
-128 -245 -138 -20 -11 -43 -24 -51 -29 -35 -22 -172 -100 -175 -100 -1 0 -56
-31 -121 -68 -66 -38 -140 -81 -166 -95 -27 -15 -69 -39 -95 -54 -27 -14 -101
-57 -167 -95 -65 -37 -119 -68 -121 -68 -1 0 -69 -39 -151 -86 -82 -47 -158
-90 -169 -95 -11 -5 -27 -13 -35 -19 -31 -20 -146 -86 -175 -100 -16 -8 -32
-17 -35 -20 -5 -5 -18 -13 -99 -58 -25 -14 -143 -80 -261 -147 -118 -67 -235
-133 -260 -147 -25 -14 -121 -69 -214 -122 -93 -53 -170 -96 -172 -96 -1 0
-38 -21 -81 -46 -43 -26 -100 -59 -128 -74 -27 -15 -142 -81 -255 -145 -113
-64 -234 -133 -270 -153 -36 -20 -98 -55 -138 -79 -41 -24 -75 -43 -77 -43 -2
0 -59 -32 -127 -71 -138 -80 -154 -89 -253 -145 -38 -21 -79 -44 -90 -51 -11
-7 -26 -15 -34 -19 -7 -4 -97 -55 -200 -114 -102 -58 -193 -109 -201 -113 -8
-4 -22 -11 -30 -17 -29 -19 -172 -100 -176 -100 -2 0 -21 -11 -42 -23 -20 -13
-68 -41 -107 -62 -38 -21 -78 -45 -87 -53 -10 -8 -18 -12 -18 -9 0 4 -25 -9
-55 -28 -30 -19 -56 -35 -59 -35 -3 0 -29 -14 -58 -31 -29 -18 -66 -39 -83
-49 -16 -9 -52 -29 -80 -45 -27 -16 -84 -47 -125 -70 -41 -23 -99 -56 -128
-74 -29 -17 -55 -31 -57 -31 -2 0 -48 -26 -102 -58 -54 -32 -170 -98 -258
-147 -88 -49 -162 -91 -165 -95 -3 -3 -23 -14 -45 -25 -22 -11 -57 -30 -78
-43 -21 -13 -55 -32 -75 -44 -20 -11 -155 -87 -300 -169 -144 -82 -265 -149
-268 -149 -3 0 -10 -5 -17 -10 -7 -6 -84 -51 -172 -101 -88 -50 -178 -101
-200 -113 -85 -49 -115 -66 -275 -156 -91 -51 -169 -96 -175 -100 -5 -4 -35
-21 -65 -37 -30 -17 -125 -70 -210 -118 -85 -49 -168 -96 -185 -105 -50 -28
-398 -226 -591 -336 -233 -133 -229 -131 -251 -112 -10 8 -43 29 -73 45 -45
25 -525 301 -990 571 -52 30 -111 64 -130 75 -19 11 -57 33 -85 49 -27 16 -60
34 -72 40 -38 19 -32 27 57 75 30 16 118 66 195 110 77 44 158 90 180 102 22
12 54 30 70 40 17 10 318 182 670 383 352 201 660 377 685 391 25 14 83 47
130 74 47 26 93 52 102 58 9 5 29 17 45 26 15 8 98 55 183 104 85 48 169 96
185 105 17 9 116 66 220 126 105 61 197 113 205 117 8 4 22 11 30 17 8 5 56
32 105 60 50 28 97 55 105 60 8 4 130 74 270 154 140 81 266 153 280 161 51
30 367 209 420 238 30 17 72 41 92 54 21 13 42 23 48 23 5 0 10 5 10 10 0 6 4
10 10 10 5 0 130 69 277 153 147 85 288 165 313 179 25 14 95 54 155 88 61 35
126 72 145 83 19 11 80 45 135 77 55 32 123 70 150 85 28 16 170 97 317 182
148 84 271 153 275 153 3 0 14 6 22 14 9 7 48 30 86 51 39 21 87 49 108 62 21
13 48 28 60 34 12 6 43 22 69 37 191 110 396 229 413 239 11 7 29 16 41 22 12
5 43 23 70 39 82 51 158 93 177 99 9 3 17 9 17 14 0 5 4 9 9 9 5 0 388 217
852 481 464 265 860 491 879 501 19 11 49 27 65 37 42 25 941 539 990 566 22
12 100 56 173 98 74 42 137 77 142 77 5 0 10 3 12 8 2 4 19 16 38 26 19 10 77
43 129 72 51 30 97 54 102 54 5 0 9 4 9 8 0 4 12 13 28 19 15 7 47 24 72 39
52 31 239 138 290 167 19 10 132 74 250 142 118 67 231 131 250 142 202 115
619 353 671 384 36 21 70 39 76 39 6 0 13 4 15 9 2 4 31 24 66 42 34 19 160
90 280 158 119 69 246 141 282 161 36 20 121 69 189 108 68 40 124 72 126 72
2 0 33 18 69 40 36 22 68 40 72 40 3 0 18 8 32 19 15 10 54 33 87 51 33 18
137 77 231 131 95 55 177 99 183 99 6 0 11 5 11 10 0 6 6 10 13 11 6 0 28 11
47 23 19 13 37 22 39 20 2 -1 3 -351 3 -776z m-1 -1215 c0 -11 0 -1552 0
-1585 -1 -22 -13 -34 -76 -72 -42 -25 -77 -46 -79 -46 -4 0 -151 -82 -191
-107 -11 -7 -27 -15 -35 -19 -8 -4 -76 -42 -150 -84 -74 -43 -160 -91 -190
-108 -30 -16 -99 -55 -154 -86 -54 -31 -101 -56 -104 -56 -3 0 -13 -6 -21 -14
-9 -7 -45 -29 -81 -48 -36 -20 -130 -72 -210 -118 -80 -45 -170 -96 -200 -112
-30 -17 -122 -69 -205 -116 -82 -47 -170 -96 -195 -110 -56 -31 -240 -136
-300 -170 -25 -15 -47 -27 -50 -27 -3 0 -16 -8 -30 -16 -25 -16 -72 -43 -165
-95 -27 -15 -106 -59 -175 -99 -69 -39 -132 -74 -140 -78 -8 -4 -22 -11 -30
-17 -14 -9 -133 -77 -275 -157 -33 -19 -68 -37 -77 -40 -10 -3 -18 -9 -18 -14
0 -5 -5 -9 -10 -9 -6 0 -105 -54 -221 -120 -116 -66 -211 -120 -213 -120 -3 0
-381 -214 -406 -230 -8 -5 -31 -18 -50 -28 -26 -14 -787 -444 -995 -562 -41
-23 -115 -65 -172 -96 -27 -15 -93 -53 -148 -84 -55 -31 -122 -70 -150 -85
-27 -15 -120 -67 -205 -115 -85 -49 -174 -99 -197 -112 -24 -12 -93 -52 -155
-87 -62 -35 -126 -72 -143 -81 -16 -9 -104 -59 -195 -110 -91 -51 -178 -101
-195 -110 -16 -9 -73 -41 -125 -70 -52 -29 -108 -63 -125 -74 -16 -12 -30 -19
-30 -17 0 3 -11 -2 -25 -11 -32 -20 -252 -144 -305 -172 -22 -12 -42 -23 -45
-27 -3 -3 -21 -13 -40 -22 -19 -10 -42 -22 -50 -27 -13 -9 -206 -118 -350
-198 -25 -14 -128 -72 -230 -130 -102 -58 -205 -116 -230 -130 -25 -14 -110
-62 -190 -107 -235 -133 -532 -301 -580 -328 -47 -26 -521 -293 -849 -479
-106 -60 -212 -120 -235 -133 -22 -13 -84 -47 -137 -77 -52 -30 -102 -58 -110
-61 -8 -4 -30 -17 -49 -28 -140 -84 -532 -299 -544 -299 -9 0 -130 66 -268
147 -139 80 -266 153 -283 161 -16 8 -41 23 -55 32 -14 9 -47 30 -75 45 -27
15 -138 78 -245 140 -107 62 -211 122 -230 132 -19 11 -55 32 -80 47 -25 15
-53 29 -63 33 -9 3 -17 8 -17 12 0 4 -16 13 -35 21 -19 8 -35 17 -35 20 0 6
53 37 235 140 22 13 65 36 95 53 30 16 62 36 71 43 8 8 18 14 21 14 3 0 35 16
70 36 34 20 88 50 118 67 30 16 67 38 82 49 14 10 33 18 42 18 9 0 16 4 16 9
0 5 16 16 35 25 19 10 74 39 121 67 47 27 89 49 94 49 5 0 10 4 12 8 3 7 170
102 273 156 22 12 42 24 45 27 3 3 32 21 65 39 33 18 174 98 313 177 139 79
269 153 290 164 20 11 51 28 67 38 17 10 57 33 90 51 33 18 65 36 70 40 10 7
58 34 175 98 36 20 67 38 70 41 3 3 21 14 40 25 91 48 167 91 190 106 14 9 54
32 90 51 36 19 67 36 70 39 3 3 14 10 25 16 98 53 142 78 150 84 6 4 35 21 65
37 46 25 498 282 565 321 119 69 407 232 411 232 2 0 21 11 42 23 20 13 58 35
84 50 25 14 161 91 302 171 141 80 259 146 261 146 3 0 24 12 48 27 23 15 56
35 72 44 17 9 183 103 370 209 187 107 352 200 367 207 15 8 30 19 33 24 4 5
11 7 16 4 5 -4 9 -2 9 3 0 5 8 12 18 16 9 3 31 14 47 23 17 10 93 54 170 97
165 93 374 212 395 226 8 5 33 18 54 30 21 12 123 69 225 127 187 107 208 119
292 165 82 46 94 53 99 58 3 3 21 13 40 24 19 10 123 68 230 129 107 60 215
121 240 135 25 14 50 28 55 32 6 4 30 19 55 32 86 48 146 82 270 153 69 39
145 83 170 97 91 51 126 71 190 108 61 35 83 47 208 116 26 15 52 30 57 34 6
4 42 24 80 45 39 21 78 45 88 53 9 8 17 12 17 9 0 -4 25 9 55 28 30 19 56 35
59 35 2 0 44 23 93 51 48 29 108 63 133 77 25 14 191 108 370 210 179 101 381
216 450 255 69 38 142 80 162 93 21 13 40 24 42 24 3 0 43 22 88 49 46 26 103
59 128 73 46 26 72 41 200 113 41 23 91 51 110 62 117 66 411 234 440 252 19
11 42 24 50 28 8 4 47 25 85 48 39 23 85 48 103 56 17 7 32 17 32 21 0 5 4 8
10 8 5 0 39 18 75 40 36 22 67 40 70 40 2 0 130 72 284 160 155 88 285 160
291 160 5 0 10 5 10 10 0 6 4 10 9 10 4 0 50 25 102 55 96 55 109 61 110 48z
m0 -1965 c0 -13 0 -369 1 -793 l0 -769 -102 -58 c-56 -32 -106 -58 -111 -58
-5 0 -9 -4 -9 -10 0 -5 -4 -10 -9 -10 -5 0 -56 -26 -113 -59 -89 -51 -383
-218 -818 -464 -69 -39 -162 -92 -208 -119 -45 -26 -85 -48 -88 -48 -3 0 -18
-8 -32 -19 -15 -10 -63 -37 -107 -61 -44 -24 -84 -46 -90 -50 -5 -5 -62 -37
-125 -73 -207 -116 -354 -200 -405 -229 -27 -16 -58 -32 -67 -35 -10 -3 -18
-9 -18 -14 0 -5 -4 -9 -9 -9 -6 0 -88 -44 -183 -99 -178 -101 -257 -145 -318
-177 -19 -11 -37 -21 -40 -24 -3 -3 -84 -50 -180 -104 -96 -55 -258 -146 -360
-204 -102 -57 -203 -115 -225 -127 -23 -13 -157 -89 -298 -169 -142 -80 -262
-146 -267 -146 -4 0 -10 -4 -12 -8 -2 -4 -34 -25 -73 -47 -38 -21 -167 -93
-285 -160 -118 -67 -235 -133 -260 -147 -25 -14 -69 -39 -98 -57 -29 -17 -54
-31 -56 -31 -2 0 -54 -29 -116 -65 -62 -36 -114 -65 -116 -65 -3 0 -21 -11
-42 -23 -20 -13 -57 -35 -82 -49 -107 -60 -456 -257 -575 -326 -71 -41 -159
-90 -195 -110 -36 -19 -69 -38 -75 -42 -5 -4 -30 -19 -55 -32 -25 -14 -63 -36
-85 -48 -22 -13 -58 -33 -80 -45 -79 -44 -791 -448 -820 -466 -16 -11 -37 -22
-45 -26 -8 -3 -26 -14 -40 -24 -14 -9 -27 -16 -30 -16 -3 0 -16 -6 -30 -15
-14 -8 -61 -36 -105 -60 -44 -25 -124 -70 -179 -102 -54 -31 -101 -56 -103
-56 -3 0 -17 -8 -31 -18 -15 -11 -52 -32 -82 -49 -80 -43 -451 -253 -480 -271
-14 -9 -54 -32 -90 -50 -36 -19 -66 -39 -68 -43 -2 -5 -8 -9 -13 -9 -6 0 -53
-25 -105 -55 -53 -30 -99 -55 -104 -55 -5 0 -10 -3 -12 -7 -1 -5 -25 -19 -53
-33 -27 -14 -52 -27 -55 -30 -4 -5 -87 -52 -245 -140 -22 -12 -48 -28 -59 -35
-23 -17 -28 -14 -149 57 -53 32 -102 58 -107 58 -6 0 -10 5 -10 10 0 6 -4 10
-9 10 -10 0 -307 169 -353 201 -15 11 -30 19 -34 19 -3 0 -51 27 -106 60 -54
33 -100 60 -102 60 -2 0 -66 37 -142 81 -77 45 -161 94 -189 110 -27 15 -92
52 -143 81 l-92 55 125 71 c70 40 130 72 136 72 5 0 9 5 9 10 0 6 4 10 9 10 5
0 105 54 221 120 116 66 214 120 217 120 3 0 17 8 31 18 15 11 56 35 92 54 36
20 105 59 153 87 49 28 91 51 93 51 2 0 21 10 42 23 20 13 62 37 92 54 55 30
255 143 513 290 42 24 99 55 125 70 26 14 77 43 114 64 36 22 70 39 74 39 4 0
15 6 23 14 9 7 43 28 76 45 33 18 74 40 90 50 29 17 46 27 180 101 33 18 102
57 152 87 51 29 97 53 103 53 5 0 10 4 10 9 0 5 8 12 18 15 10 4 68 35 128 69
61 35 117 66 125 70 8 4 30 17 49 28 19 12 55 32 80 46 25 13 61 33 80 45 29
16 165 93 410 231 19 10 103 58 185 105 83 47 170 96 195 110 25 14 111 63
192 109 81 45 152 83 157 83 6 0 11 4 11 9 0 5 6 11 13 13 9 2 551 306 657
368 8 5 85 48 170 96 85 47 173 96 195 109 42 24 89 50 164 93 25 14 67 38 93
53 27 16 50 29 52 29 2 0 54 29 116 65 62 36 114 65 116 65 3 0 21 10 42 23
20 13 62 37 92 54 30 16 123 68 205 115 183 104 217 124 275 156 25 13 59 32
75 42 17 10 50 29 75 42 42 24 315 178 534 302 54 31 100 56 102 56 3 0 22 11
43 25 22 13 95 55 163 93 68 38 139 78 158 88 19 11 82 47 140 80 58 32 113
63 122 69 9 5 34 19 55 31 104 58 309 173 398 224 55 31 123 70 150 85 28 15
100 55 160 90 172 98 345 195 405 228 30 17 88 50 128 74 41 24 75 43 77 43 3
0 166 91 195 110 13 8 154 87 300 168 25 14 103 59 173 99 70 41 138 78 150
84 12 5 45 23 72 40 28 16 61 35 75 42 14 6 27 14 30 18 3 3 32 21 65 38 33
18 67 36 75 41 51 32 136 79 143 80 4 0 7 -10 8 -22z m1 -2630 c-1 -403 -1
-751 -1 -774 -1 -34 -6 -43 -28 -55 -15 -8 -115 -65 -221 -126 -106 -62 -195
-113 -198 -113 -2 0 -23 -11 -45 -26 -22 -14 -56 -34 -75 -45 -41 -23 -37 -21
-354 -204 -140 -81 -275 -159 -300 -173 -25 -14 -62 -36 -82 -49 -21 -12 -39
-23 -42 -23 -2 0 -34 -18 -70 -40 -36 -22 -70 -40 -76 -40 -5 0 -10 -4 -10
-10 0 -5 -4 -10 -9 -10 -6 0 -118 -63 -251 -140 -133 -77 -260 -151 -283 -164
-208 -118 -403 -232 -405 -238 -2 -5 -8 -8 -13 -8 -5 0 -53 -25 -107 -56 -223
-130 -353 -205 -384 -222 -76 -43 -375 -216 -398 -231 -14 -9 -34 -21 -45 -27
-54 -29 -146 -82 -590 -339 -264 -153 -552 -319 -640 -370 -300 -173 -490
-283 -525 -303 -19 -11 -134 -77 -255 -147 -121 -71 -238 -138 -260 -150 -22
-12 -121 -70 -220 -127 -99 -58 -200 -116 -225 -130 -49 -28 -411 -237 -610
-353 -69 -40 -148 -85 -175 -101 -28 -15 -78 -45 -113 -66 -34 -21 -64 -38
-66 -38 -1 0 -88 -49 -192 -110 -160 -92 -191 -107 -204 -96 -8 7 -69 43 -135
81 -66 37 -136 78 -155 90 -31 19 -135 79 -239 137 -20 11 -73 42 -119 69 -45
27 -87 49 -92 49 -6 0 -10 5 -10 10 0 6 -4 10 -9 10 -5 0 -49 23 -98 51 -48
28 -101 59 -118 69 -16 9 -56 32 -88 51 -32 19 -82 48 -112 64 -174 99 -225
129 -225 134 0 6 32 24 320 186 172 97 1190 674 1240 703 19 12 71 41 115 65
44 25 96 53 115 64 19 11 56 31 82 46 25 14 63 36 85 50 21 13 67 40 103 59
53 29 959 542 1080 611 19 11 87 49 150 85 63 35 120 68 125 72 6 4 39 23 75
42 100 54 159 88 235 133 39 22 77 44 85 48 8 4 24 13 35 20 11 7 72 41 135
76 63 35 127 72 142 82 14 11 33 19 41 19 9 0 17 4 19 8 2 4 26 21 53 36 28
16 70 40 95 54 43 24 64 36 148 83 20 12 102 58 182 104 80 45 165 93 190 107
25 14 104 59 176 100 71 41 137 77 145 81 8 4 21 11 29 17 22 14 191 110 195
110 2 0 32 17 66 39 35 21 91 53 124 70 33 18 76 42 95 53 38 22 297 169 370
210 25 14 61 34 80 45 179 102 424 241 460 261 25 14 62 36 82 49 21 12 39 23
41 23 3 0 80 43 172 95 92 53 186 106 209 119 73 42 280 159 309 175 16 9 36
21 46 26 37 22 424 241 459 260 20 11 65 37 100 58 35 20 65 37 68 37 3 0 29
16 59 35 30 19 55 32 55 28 0 -3 8 0 18 8 19 15 30 22 142 85 41 23 174 98
295 167 121 69 222 123 224 121 2 -2 3 -333 3 -736z"/>
<path d="M28528 35657 c-26 -8 -99 -44 -163 -80 -63 -37 -119 -67 -123 -67 -4
0 -13 -5 -20 -12 -12 -12 -101 -64 -152 -90 -14 -7 -27 -15 -30 -18 -3 -3 -23
-14 -45 -25 -22 -11 -42 -23 -45 -26 -8 -10 -273 -159 -282 -159 -4 0 -8 -4
-8 -10 0 -5 -4 -10 -9 -10 -5 0 -92 -48 -193 -106 -100 -59 -199 -115 -218
-126 -19 -11 -57 -33 -85 -49 -27 -16 -57 -32 -65 -36 -8 -3 -22 -11 -30 -18
-8 -7 -42 -27 -75 -45 -33 -17 -64 -35 -70 -40 -5 -4 -31 -19 -57 -33 -25 -14
-158 -90 -295 -170 -136 -79 -268 -155 -293 -169 -25 -14 -101 -58 -170 -98
-69 -40 -143 -83 -165 -95 -22 -12 -123 -71 -225 -130 -299 -174 -423 -245
-429 -245 -2 0 -12 -6 -20 -14 -9 -7 -41 -27 -71 -43 -30 -17 -111 -63 -180
-103 -69 -40 -145 -84 -170 -98 -87 -49 -107 -60 -325 -187 -121 -70 -233
-135 -250 -144 -16 -9 -41 -24 -55 -32 -35 -23 -354 -206 -420 -242 -30 -17
-56 -34 -58 -39 -2 -4 -8 -8 -14 -8 -8 0 -160 -85 -268 -150 -30 -18 -216
-125 -243 -140 -15 -8 -83 -47 -150 -86 -117 -69 -478 -278 -897 -519 -107
-62 -310 -179 -450 -260 -140 -81 -291 -167 -335 -193 -111 -63 -227 -131
-245 -142 -8 -6 -24 -14 -35 -20 -11 -5 -41 -22 -66 -37 -26 -16 -133 -77
-239 -138 -106 -60 -216 -132 -245 -158 -44 -39 -94 -114 -101 -149 -1 -5 -2
-9 -4 -10 -1 -2 -4 -12 -7 -23 -3 -11 -6 -2078 -7 -4593 -1 -3371 1 -4584 10
-4615 6 -23 13 -49 15 -57 8 -29 62 -105 98 -137 32 -29 229 -148 371 -226 30
-16 60 -33 65 -38 11 -8 175 -102 265 -152 30 -16 66 -38 80 -47 14 -10 57
-34 95 -55 39 -21 81 -46 95 -55 14 -9 32 -20 40 -24 8 -3 38 -20 65 -36 28
-17 61 -36 75 -43 14 -6 30 -15 35 -20 9 -7 308 -180 405 -234 25 -14 70 -40
100 -58 30 -18 71 -42 90 -53 19 -10 86 -49 149 -86 62 -36 115 -66 116 -66 2
0 49 -27 104 -60 56 -33 106 -60 111 -60 6 0 10 -4 10 -10 0 -5 4 -10 9 -10 7
0 82 -41 186 -103 11 -6 40 -24 65 -38 25 -15 65 -38 90 -51 25 -14 218 -126
430 -248 421 -244 434 -251 500 -288 25 -14 57 -33 72 -43 14 -11 28 -19 31
-19 3 0 72 -39 154 -86 145 -85 175 -102 251 -145 20 -12 51 -30 67 -40 17
-11 36 -22 44 -26 8 -3 134 -75 279 -160 145 -84 268 -153 273 -153 5 0 9 -4
9 -10 0 -5 4 -10 10 -10 5 0 71 -36 146 -80 75 -44 138 -80 140 -80 1 0 48
-27 103 -60 56 -33 106 -60 111 -60 6 0 10 -4 10 -10 0 -5 4 -10 9 -10 4 0 45
-21 91 -47 161 -94 187 -108 256 -147 38 -21 85 -49 104 -61 19 -12 222 -129
450 -260 228 -130 427 -246 442 -256 15 -11 29 -19 31 -19 3 0 56 -30 118 -66
63 -37 134 -78 159 -92 25 -13 70 -39 100 -57 46 -28 354 -205 480 -277 19
-11 105 -61 190 -110 231 -134 231 -134 284 -152 50 -17 135 -22 190 -11 47
10 83 27 261 130 94 54 179 103 190 109 11 6 22 13 25 16 3 3 16 11 30 18 14
7 59 32 100 57 41 24 100 58 130 75 30 16 62 35 70 40 15 9 89 53 160 93 19
10 124 71 232 133 108 63 202 114 207 114 6 0 11 3 11 8 0 4 17 16 38 27 20
11 91 51 157 90 66 38 134 77 150 85 17 8 32 17 35 20 5 5 279 164 355 206 95
52 190 109 193 116 2 5 8 8 14 8 5 0 37 16 71 36 34 20 77 45 94 55 86 49 610
350 623 359 23 14 278 162 329 191 25 14 102 58 170 97 68 40 125 72 128 72 2
0 16 8 31 19 15 10 164 98 332 194 168 96 319 184 337 194 17 10 94 54 170 98
76 44 147 85 158 91 19 10 92 52 440 254 88 51 180 104 205 118 25 13 50 28
55 32 9 7 46 28 125 72 19 11 49 27 65 37 17 10 91 53 165 96 74 43 178 103
230 133 52 30 163 93 245 141 83 47 152 88 155 91 3 3 16 11 30 17 14 7 48 26
75 43 28 16 57 33 65 37 8 4 43 24 78 45 34 21 64 38 66 38 2 0 33 17 67 38
35 22 84 50 109 64 25 14 106 60 180 103 74 43 145 84 157 89 13 6 23 14 23
19 0 4 5 7 10 7 9 0 112 58 300 168 89 53 218 127 248 143 45 24 118 81 141
111 20 25 68 108 70 121 1 4 1 8 2 10 0 1 3 11 5 22 8 32 8 9156 0 9197 -11
61 -43 123 -90 175 -42 46 -78 68 -611 376 -11 6 -40 24 -65 38 -25 15 -61 36
-80 47 -19 10 -183 105 -365 209 -181 105 -346 199 -365 210 -19 11 -65 39
-103 61 -37 23 -71 42 -76 42 -4 0 -19 8 -32 18 -13 10 -54 35 -92 56 -37 20
-140 79 -228 131 -89 52 -163 95 -166 95 -2 0 -44 25 -94 55 -50 30 -92 55
-94 55 -3 0 -42 22 -87 49 -83 49 -623 361 -708 409 -25 14 -93 54 -152 89
-59 34 -112 63 -117 63 -6 0 -11 5 -11 10 0 6 -5 10 -10 10 -6 0 -40 18 -76
40 -36 22 -67 40 -69 40 -2 0 -49 27 -105 60 -56 33 -103 60 -105 60 -2 0 -33
18 -67 40 -35 22 -69 40 -75 40 -7 0 -13 5 -13 10 0 6 -4 10 -9 10 -5 0 -129
70 -276 155 -146 85 -269 155 -272 155 -4 0 -14 6 -22 14 -9 8 -38 26 -66 40
-27 15 -57 31 -65 37 -15 9 -326 189 -410 237 -25 14 -58 33 -75 43 -16 10
-52 30 -80 45 -27 15 -61 34 -75 44 -14 9 -50 31 -80 47 -55 31 -707 406 -890
513 -160 93 -358 206 -367 208 -7 2 -13 8 -13 13 0 5 -4 9 -10 9 -5 0 -33 14
-62 31 -29 17 -66 39 -83 48 -16 9 -61 35 -100 58 -113 66 -377 219 -415 240
-34 20 -377 218 -475 275 -129 75 -191 99 -267 104 -44 2 -92 -1 -120 -9z
m294 -908 c106 -61 200 -115 208 -120 8 -5 125 -72 260 -149 135 -78 252 -145
260 -150 8 -5 62 -37 120 -70 58 -33 112 -65 120 -70 39 -24 307 -177 320
-183 8 -4 29 -16 45 -26 17 -11 46 -28 65 -39 57 -31 100 -56 190 -109 47 -28
191 -111 320 -186 129 -74 291 -168 360 -207 69 -40 141 -82 160 -93 19 -10
161 -92 315 -182 154 -89 301 -173 326 -187 82 -46 94 -53 99 -58 3 -3 25 -16
50 -29 25 -13 52 -30 61 -37 8 -8 19 -14 22 -14 4 0 105 -57 224 -126 120 -70
234 -136 253 -147 76 -42 509 -293 575 -332 39 -23 162 -94 275 -159 113 -65
212 -122 220 -127 25 -15 421 -244 470 -271 56 -31 456 -263 648 -375 79 -45
146 -83 150 -83 5 0 14 -6 20 -12 7 -7 41 -29 76 -48 66 -36 196 -111 466
-267 52 -31 111 -65 130 -75 62 -36 205 -118 220 -128 8 -5 60 -35 115 -66 55
-31 102 -60 105 -64 3 -5 5 -1942 5 -4305 l0 -4297 -155 -90 c-409 -238 -671
-388 -677 -388 -3 0 -14 -6 -22 -14 -16 -13 -94 -59 -138 -80 -13 -6 -23 -14
-23 -18 0 -5 -4 -8 -10 -8 -8 0 -113 -58 -180 -99 -14 -9 -270 -156 -364 -209
-22 -13 -62 -37 -89 -53 -26 -16 -50 -29 -52 -29 -3 0 -34 -17 -68 -39 -34
-21 -154 -91 -267 -156 -113 -64 -234 -134 -270 -155 -36 -21 -144 -83 -240
-139 -96 -55 -179 -104 -185 -108 -5 -5 -21 -14 -35 -20 -14 -7 -52 -28 -85
-48 -33 -20 -68 -38 -77 -42 -10 -3 -18 -9 -18 -14 0 -5 -4 -9 -10 -9 -5 0
-42 -19 -82 -43 -40 -24 -80 -46 -88 -50 -8 -4 -24 -13 -35 -19 -44 -29 -120
-73 -205 -120 -19 -11 -48 -27 -65 -37 -32 -19 -272 -158 -327 -189 -18 -11
-83 -48 -144 -84 -61 -36 -117 -68 -125 -71 -8 -4 -23 -13 -34 -19 -56 -36
-126 -78 -129 -78 -4 0 -203 -114 -526 -303 -85 -49 -175 -101 -200 -115 -25
-14 -97 -55 -160 -92 -63 -37 -135 -78 -160 -92 -25 -14 -126 -72 -225 -130
-99 -58 -272 -158 -385 -223 -113 -65 -333 -192 -490 -283 -296 -171 -303
-175 -435 -250 -44 -25 -87 -51 -96 -59 -9 -7 -19 -10 -22 -6 -4 3 -7 1 -7 -5
0 -6 -10 -14 -22 -18 -13 -4 -34 -15 -48 -24 -14 -10 -122 -73 -240 -141 -118
-68 -216 -127 -218 -131 -5 -10 -80 30 -312 167 -14 9 -61 36 -105 61 -44 25
-101 57 -126 72 -25 15 -111 64 -190 110 -79 46 -151 87 -159 92 -51 31 -222
130 -224 130 -2 0 -65 36 -140 80 -75 44 -140 80 -145 80 -5 0 -11 4 -13 8 -1
5 -28 22 -58 39 -71 39 -181 101 -200 113 -30 19 -355 207 -365 211 -6 2 -42
23 -80 46 -99 58 -432 251 -480 278 -22 12 -287 165 -590 340 -302 175 -577
334 -610 352 -33 19 -152 88 -265 154 -113 66 -217 125 -232 132 -16 6 -28 15
-28 19 0 4 -4 8 -9 8 -5 0 -98 52 -206 115 -109 63 -199 115 -200 115 -1 0
-44 25 -94 55 -51 30 -94 55 -97 55 -3 0 -18 8 -32 18 -15 11 -52 33 -82 49
-45 25 -317 182 -378 218 -9 6 -68 40 -130 75 -62 36 -128 73 -145 84 -18 10
-194 112 -392 226 -348 200 -572 330 -645 373 -19 11 -53 30 -75 43 -22 12
-123 70 -225 129 -206 120 -208 121 -337 194 -51 29 -94 60 -96 69 -6 24 -3
8589 3 8595 6 5 111 66 180 105 25 14 216 124 424 245 209 121 395 228 413
238 74 42 101 58 173 101 41 24 82 47 90 51 8 4 22 11 30 17 42 28 172 100
180 100 6 0 10 5 10 10 0 6 4 10 9 10 5 0 60 30 122 66 63 36 173 100 244 141
72 41 137 78 145 83 74 45 221 130 225 130 3 0 24 12 48 27 23 14 67 40 97 56
30 16 62 35 70 41 8 6 31 20 50 30 19 10 76 42 125 71 90 53 521 302 583 337
100 57 478 276 516 299 17 10 38 22 46 26 8 4 43 24 78 45 34 21 64 38 66 38
2 0 93 52 202 116 110 64 217 127 239 139 22 12 171 97 330 190 160 92 306
176 325 187 19 11 49 27 65 37 53 31 658 381 1005 580 184 106 347 202 362
212 15 10 29 19 32 19 2 0 87 48 188 106 100 58 271 157 378 219 107 61 238
137 290 168 52 31 98 56 102 56 4 1 94 -49 200 -110z"/>
<path d="M19927 20873 c-2 -1 -18 -5 -37 -8 -44 -8 -48 -9 -395 -210 -159 -92
-305 -176 -323 -187 -18 -10 -93 -53 -165 -95 -112 -64 -200 -115 -422 -243
-81 -47 -242 -139 -450 -259 -126 -73 -300 -173 -385 -223 -85 -49 -175 -101
-200 -115 -25 -14 -70 -40 -101 -59 -31 -19 -61 -34 -67 -34 -6 0 -12 -3 -14
-8 -4 -9 -147 -92 -159 -92 -5 0 -9 -4 -9 -10 0 -5 -5 -10 -10 -10 -6 0 -108
-56 -226 -126 -119 -69 -231 -132 -250 -141 -19 -9 -34 -20 -34 -25 0 -4 -4
-8 -9 -8 -8 0 -351 -194 -421 -238 -14 -9 -25 -14 -25 -11 0 2 -13 -6 -30 -17
-24 -17 -576 -337 -727 -422 -20 -12 -55 -32 -77 -46 -22 -15 -43 -26 -45 -26
-2 0 -51 -28 -108 -62 -56 -33 -121 -71 -143 -83 -46 -25 -613 -353 -665 -384
-19 -11 -42 -24 -50 -28 -8 -4 -73 -41 -145 -83 -71 -42 -137 -79 -145 -83 -8
-4 -28 -16 -45 -26 -16 -10 -149 -87 -295 -171 -146 -84 -269 -156 -275 -160
-5 -4 -30 -18 -55 -32 -25 -14 -117 -67 -205 -118 -88 -51 -173 -100 -190
-108 -16 -8 -41 -23 -55 -32 -14 -9 -45 -28 -70 -42 -87 -49 -309 -176 -605
-348 -88 -52 -172 -100 -187 -107 -15 -8 -30 -18 -33 -24 -4 -5 -13 -9 -21 -9
-8 0 -20 -5 -27 -11 -7 -5 -40 -28 -74 -50 -80 -51 -126 -108 -158 -192 l-25
-67 0 -4578 c0 -4953 -3 -4597 50 -4702 44 -87 52 -93 665 -445 343 -198 1155
-667 1185 -685 62 -38 504 -290 508 -290 3 0 13 -6 21 -14 9 -7 45 -29 81 -48
36 -20 100 -57 143 -82 43 -25 82 -46 87 -46 6 0 10 -4 10 -10 0 -5 4 -10 9
-10 7 0 239 -133 956 -548 72 -41 150 -86 175 -100 25 -14 62 -36 82 -49 21
-12 40 -23 43 -23 3 0 42 -23 86 -50 44 -28 83 -50 85 -50 2 0 34 -18 70 -40
36 -22 67 -40 69 -40 2 0 39 -21 82 -46 43 -26 98 -58 123 -72 25 -14 155 -89
290 -167 135 -78 389 -225 565 -327 498 -287 639 -369 655 -378 45 -26 201
-116 239 -138 74 -41 145 -82 161 -92 59 -36 174 -100 181 -100 5 0 9 -4 9
-10 0 -5 4 -10 9 -10 4 0 116 -62 247 -138 304 -176 767 -443 819 -473 95 -54
141 -80 155 -89 18 -11 99 -58 161 -92 69 -38 129 -51 210 -45 78 6 142 34
319 139 47 27 110 64 140 81 30 16 58 34 61 39 3 5 10 10 15 10 5 0 38 17 74
38 36 21 196 113 355 205 160 92 319 184 355 205 70 41 862 499 1280 739 30
18 62 36 70 41 43 28 363 210 368 210 3 0 13 6 21 14 9 7 41 27 71 43 30 16
111 63 180 103 69 40 143 83 165 95 62 35 338 194 355 204 29 18 665 386 685
397 11 5 74 42 140 80 66 39 158 92 205 119 47 27 129 75 183 107 54 32 100
58 103 58 3 0 30 16 60 35 30 19 56 35 58 35 3 0 39 20 80 45 42 25 81 45 86
45 6 0 10 5 10 10 0 6 4 10 10 10 8 0 107 56 160 90 8 6 22 13 30 17 8 4 150
85 315 181 165 96 318 184 340 197 22 12 128 73 235 135 107 62 211 122 230
133 19 10 76 43 125 72 50 29 106 62 125 73 19 10 80 45 135 77 55 32 227 132
383 221 155 90 286 164 291 164 5 0 11 3 13 8 2 4 42 30 91 57 116 67 170 118
210 202 l32 68 3 4575 c2 3458 0 4588 -9 4629 -27 128 -81 188 -263 295 -311
183 -718 416 -727 416 -5 0 -9 5 -9 10 0 6 -6 10 -14 10 -7 0 -19 7 -26 15 -7
9 -15 13 -17 11 -3 -3 -28 10 -56 28 -29 18 -74 45 -102 61 -45 25 -268 153
-305 175 -72 43 -121 70 -130 70 -5 0 -10 3 -10 8 0 4 -10 12 -23 18 -12 6
-62 34 -111 62 -49 29 -93 52 -97 52 -5 0 -9 5 -9 10 0 6 -4 10 -9 10 -10 0
-307 169 -353 201 -15 11 -29 19 -32 19 -3 0 -146 82 -318 181 -305 177 -333
194 -429 248 -25 14 -112 64 -193 111 -81 47 -161 93 -179 104 -435 250 -603
347 -752 434 -99 58 -205 118 -235 135 -30 17 -66 38 -80 47 -14 9 -32 20 -40
24 -8 3 -37 20 -65 36 -27 17 -61 36 -75 43 -14 6 -31 17 -38 24 -7 7 -20 13
-28 13 -8 0 -14 5 -14 10 0 6 -4 10 -10 10 -5 0 -62 31 -127 69 -65 38 -237
137 -383 221 -146 84 -278 162 -295 174 -16 11 -31 20 -33 18 -1 -1 -12 4 -25
12 -54 33 -529 306 -533 306 -3 0 -25 14 -49 30 -24 17 -46 30 -49 30 -3 0
-51 27 -107 60 -55 33 -105 60 -110 60 -5 0 -9 4 -9 8 0 4 -12 13 -27 19 -16
7 -50 25 -78 41 -140 83 -548 319 -620 359 -33 19 -67 38 -75 43 -8 5 -40 24
-70 41 -148 86 -383 221 -412 238 -18 11 -44 26 -58 34 -42 23 -102 58 -170
97 -74 43 -133 62 -203 64 -26 1 -49 1 -50 -1z m221 -909 c92 -53 181 -105
199 -115 183 -104 454 -261 518 -299 44 -26 100 -59 125 -72 55 -31 394 -226
550 -318 63 -37 122 -70 130 -74 8 -3 60 -33 115 -66 55 -33 210 -123 345
-201 135 -77 252 -145 260 -150 19 -12 688 -399 715 -413 25 -14 290 -167 313
-181 9 -6 40 -23 67 -38 28 -15 66 -37 85 -48 42 -26 411 -239 460 -266 19
-11 134 -78 255 -148 121 -70 245 -141 275 -158 30 -16 60 -33 65 -37 6 -4 26
-17 45 -28 19 -10 123 -70 230 -132 107 -62 211 -122 230 -132 67 -38 816
-472 958 -555 79 -45 145 -83 148 -83 3 0 25 -13 49 -30 24 -16 46 -30 49 -30
5 0 145 -81 346 -199 52 -30 97 -56 100 -56 3 0 16 -8 30 -17 36 -23 550 -319
583 -336 l27 -13 0 -4304 0 -4303 -92 -54 c-51 -29 -105 -60 -119 -68 -15 -8
-93 -53 -173 -100 -81 -47 -164 -94 -184 -106 -45 -25 -353 -203 -402 -233
-19 -11 -55 -32 -80 -46 -25 -14 -67 -38 -95 -55 -27 -17 -57 -33 -65 -37 -8
-3 -26 -14 -40 -23 -14 -9 -50 -31 -80 -47 -30 -17 -165 -94 -299 -172 -134
-77 -246 -141 -249 -141 -3 0 -13 -6 -21 -14 -9 -7 -41 -27 -71 -43 -73 -40
-249 -141 -280 -161 -14 -9 -27 -17 -30 -17 -3 0 -16 -8 -30 -17 -40 -26 -530
-308 -535 -308 -2 0 -33 -18 -67 -40 -35 -22 -69 -40 -75 -40 -7 0 -13 -4 -13
-9 0 -5 -8 -11 -17 -14 -17 -6 -82 -42 -132 -74 -12 -8 -48 -29 -80 -46 -31
-16 -58 -33 -61 -37 -3 -4 -10 -9 -15 -11 -10 -4 -213 -118 -285 -161 -71 -41
-546 -316 -575 -332 -16 -9 -46 -26 -65 -37 -40 -24 -667 -386 -720 -417 -19
-10 -86 -49 -148 -86 -62 -36 -115 -66 -117 -66 -3 0 -28 -15 -57 -33 -29 -19
-60 -37 -68 -40 -8 -4 -22 -11 -30 -17 -22 -14 -212 -125 -230 -133 -8 -4 -28
-15 -45 -26 -32 -19 -220 -128 -430 -249 -211 -121 -299 -172 -315 -182 -8 -5
-31 -18 -50 -28 -19 -11 -161 -92 -315 -182 -753 -437 -692 -404 -719 -386
-24 15 -58 35 -146 84 -25 14 -69 40 -98 59 -29 18 -54 33 -56 33 -2 0 -86 48
-187 106 -406 234 -586 338 -629 362 -25 14 -74 42 -109 64 -34 21 -65 38 -67
38 -2 0 -32 17 -66 38 -35 21 -83 50 -108 64 -101 56 -526 301 -535 308 -5 4
-32 20 -60 36 -27 15 -63 35 -80 45 -16 10 -52 30 -80 44 -27 15 -57 32 -65
39 -8 6 -24 16 -35 22 -18 10 -669 385 -820 472 -33 19 -77 44 -97 56 -186
105 -314 181 -316 188 -2 4 -12 8 -22 8 -10 0 -21 4 -24 9 -3 5 -52 35 -108
67 -57 32 -111 63 -120 69 -9 5 -34 20 -55 31 -21 12 -164 95 -318 184 -154
90 -298 173 -320 185 -40 23 -305 176 -420 243 -33 19 -80 46 -105 60 -25 13
-97 55 -160 92 -96 56 -501 291 -605 350 -54 31 -140 81 -155 90 -39 25 -314
180 -318 180 -3 0 -13 6 -21 14 -9 7 -41 27 -71 43 -30 17 -95 53 -143 82 -49
28 -93 51 -98 51 -5 0 -9 5 -9 10 0 6 -4 10 -9 10 -5 0 -134 73 -287 162 -154
88 -330 190 -391 225 l-113 65 1 141 c0 78 0 147 -1 152 -1 6 -1 15 0 20 1 6
1 30 1 55 -2 72 0 134 4 139 2 2 0 11 -5 21 -5 10 -6 20 -3 24 3 3 5 27 4 54
-2 60 -2 32 -1 357 1 154 1 285 0 290 -1 6 -1 15 0 20 1 6 1 30 1 55 -2 72 0
134 4 139 2 2 0 11 -5 21 -5 10 -6 20 -3 24 3 3 5 27 4 54 -2 60 -2 32 -1 357
1 154 1 285 0 290 -1 6 -1 15 0 20 1 6 1 30 1 55 -2 72 0 134 4 139 2 2 0 11
-5 21 -5 10 -6 20 -3 24 3 3 5 27 4 54 -2 60 -2 32 -1 357 1 154 1 285 0 290
-1 6 -1 15 0 20 1 6 1 30 1 55 -2 72 0 134 4 139 2 2 0 11 -5 21 -5 10 -6 20
-3 24 3 3 5 27 4 54 -2 60 -2 32 -1 357 1 154 1 285 0 290 -1 6 -1 15 0 20 1
6 1 30 1 55 -2 72 0 134 4 139 2 2 0 11 -5 21 -5 10 -6 20 -3 24 3 3 5 27 4
54 -2 56 -2 46 -1 197 1 66 1 125 0 130 -1 6 -1 15 0 20 1 6 1 30 1 55 -2 72
0 134 4 139 2 2 0 11 -5 21 -5 10 -6 20 -3 24 3 3 5 27 4 54 -2 60 -2 32 -1
357 1 154 1 285 0 290 -1 6 -1 15 0 20 1 6 1 30 1 55 -2 72 0 134 4 139 2 2 0
11 -5 21 -5 10 -6 20 -3 24 3 3 5 27 4 54 -2 60 -2 32 -1 357 1 154 1 285 0
290 -1 6 -1 15 0 20 1 6 1 30 1 55 -2 72 0 134 4 139 2 2 0 11 -5 21 -5 10 -6
20 -3 24 3 3 5 27 4 54 -2 56 -2 46 -1 197 1 66 1 125 0 130 -1 6 -1 15 0 20
1 6 1 30 1 55 -2 72 0 134 4 139 2 2 0 11 -5 21 -5 10 -6 20 -3 24 3 3 5 27 4
54 -2 60 -2 32 -1 357 1 154 1 285 0 290 -1 6 -1 15 0 20 1 8 1 63 -1 110 0 6
1 49 2 97 l2 86 36 19 c20 10 37 21 39 26 2 4 7 7 11 7 4 0 118 64 252 141
434 251 713 412 739 426 14 8 39 22 55 32 71 44 158 91 165 91 5 0 10 3 12 8
2 5 213 129 358 210 14 8 53 30 88 50 34 21 174 101 310 180 136 79 254 147
262 152 8 5 71 42 140 81 69 40 194 112 278 160 85 49 158 89 163 89 5 0 9 5
9 10 0 6 4 10 10 10 7 0 119 61 200 110 43 26 127 76 145 85 49 27 117 66 200
115 50 29 108 63 130 75 22 13 112 64 200 115 88 51 178 103 200 115 22 13 86
50 143 84 57 34 105 61 108 61 2 0 28 16 58 35 30 19 57 35 60 35 2 0 50 27
105 60 56 33 104 60 107 60 3 0 28 15 57 33 29 18 77 47 107 64 30 16 106 60
169 97 62 36 115 66 117 66 2 0 37 20 77 45 41 25 80 45 86 45 6 0 11 4 11 8
0 4 24 20 53 35 28 15 59 32 67 37 8 5 62 37 120 70 58 33 112 65 120 70 8 5
31 18 50 29 93 51 717 411 727 421 7 5 14 10 17 10 3 0 58 31 123 69 182 106
444 256 488 281 22 12 45 26 50 30 6 4 39 23 75 43 36 19 126 71 200 115 74
44 141 81 148 81 7 1 88 -42 180 -95z"/>
</g>
</svg>
